<svg width="260" height="120" xmlns="http://www.w3.org/2000/svg" preserveAspectRatio="none" version="1.1" class="svg-canvas">
 <defs>
  <pattern id="wm_tile" x="0" y="0" width="20%" height="27%" patternunits="objectBoundingBox">
   <g id="wm_lm" fill="#cccccc">
    <text transform="rotate(-390 -188 -323)" font-size="15" y="-323.00021" x="-188.00003" id="svg_4"/>
   </g>
  </pattern>
 </defs>
 <g>
  <title>Layer 1</title>
  <g id="shape_AjwXCJgVSQ" transform="translate(280.736 250.032) scale(1 1)">
   <g id="svg_6">
    <rect fill="rgba(0,0,0,0)" width="180" height="119.93566" x="-285" y="-253" id="svg_7"/>
    <svg version="1.1" id="svg_2" x="-275" y="-243" width="160" height="99.93566" viewBox="10.189589500427246 43.904483795166016 179.6204071044922 112.19052124023438" enable-background="new 0 0 200 200" xml:space="preserve" preserveAspectRatio="none" class="style-removed" data-parent="shape_AjwXCJgVSQ" xmlns="http://www.w3.org/2000/svg" xmlns:xlink="http://www.w3.org/1999/xlink">
     <g id="svg_3">
      <path fill="#FCA8D5" d="m106.321,89.494c0,0 21.712,-23.689 49.111,-19.623c20.564,3.052 29.926,14.137 34.378,20.14l-13.44,0c0,0 -9.943,-9.084 -23.78,-10.899c-12.577,-1.65 -22.747,-0.991 -46.269,10.382z" stroke-width="0" id="svg_10"/>
      <path fill="#FCA8D5" d="m147.161,71.716c0,0 -5.801,-22.574 -33.028,-27.054s-52.213,11.258 -70.823,38.025l22.517,-4.021c0,0 19.354,-29.195 47.101,-24.24c16.083,2.872 24.699,10.109 27.916,18.496l6.317,-1.206z" stroke-width="0" id="svg_8"/>
      <path fill="#fca8d5" d="m62.38,83.893c0,0 -46.698,7.782 -51.696,38.255c-4.136,25.216 18.611,33.947 33.43,33.947c18.036,0 112.698,0 112.698,0l1.206,-5.687c0,0 -71.397,0.324 -101.38,0c-15.968,-0.172 -28.147,-4.996 -28.147,-22.574c0,-14.992 12.867,-26.502 29.065,-32.034l4.824,-11.907z" stroke-width="0" id="svg_5"/>
     </g>
    </svg>
   </g>
  </g>
  <g id="shape_W7YDZ35Q8m" transform="translate(263.264 113.235) scale(1 1)">
   <svg version="1.1" width="430" height="407.644" viewBox="0 0 430 407.644" data-parent="shape_W7YDZ35Q8m" id="svg_20" x="-275" y="-243" xmlns="http://www.w3.org/2000/svg" xmlns:xlink="http://www.w3.org/1999/xlink">
    <rect fill="rgba(0,0,0,0)" width="198" height="58" x="58" y="174.822" id="svg_27"/>
    <g data-width="197.954" id="svg_21">
     <path d="m132.88509,185.13201l13.86,0l0,6.91l-10.73,0q-4.17,0 -6.09,0.58q-1.91,0.58 -3.19,2.26l0,0q-0.87,1.16 -1.18,2.32q-0.32,1.16 -0.56,3.94l0,0l21.75,0l0,6.9l-21.75,0q0.47,4.99 2.96,6.93q2.5,1.95 8.47,1.95l0,0l10.32,0l0,6.9l-10.73,0q-4.35,0 -7.65,-0.52l0,0q-5.22,-0.87 -8.3,-4.58l0,0q-4.4,-5.34 -4.4,-14.45l0,0q0,-10.09 6.2,-15.71l0,0q2.15,-1.92 4.56,-2.67q2.4,-0.76 6.46,-0.76l0,0z" transform="skewX(-14)" fill="#FCA8D5" stroke="#FCA8D5" stroke-width="0.097" data-glyph-w="35.496" data-glyph-h="58" data-glyph-ascender="49.822" data-glyph-descender="-8.178" id="svg_26"/>
     <path d="m174.65109,223.82201l-21.41,0l0,-38.69l21.87,0q5.16,0 7.48,1.22l0,0q2.73,1.34 4.12,4.47l0,0q0.99,2.14 0.99,4.46l0,0q0,3.02 -1.6,5.63q-1.59,2.61 -4.03,3.6l0,0q5.63,2.55 5.63,9.1l0,0q0,3.77 -1.8,6.32l0,0q-1.57,2.21 -4,3.05q-2.44,0.84 -7.25,0.84l0,0zm-13.17,-31.78l0,8.99l11.19,0q1.8,0 2.59,-0.18q0.78,-0.17 1.53,-0.75l0,0q1.8,-1.39 1.8,-3.83l0,0q0,-2.32 -1.68,-3.42l0,0q-1.22,-0.81 -4.06,-0.81l0,0l-11.37,0zm0,15.89l0,8.99l11.19,0q1.8,0 2.61,-0.18q0.82,-0.17 1.51,-0.75l0,0q1.8,-1.39 1.8,-3.83l0,0q0,-2.32 -1.68,-3.42l0,0q-1.22,-0.81 -4.06,-0.81l0,0l-11.37,0z" transform="skewX(-14)" fill="#FCA8D5" stroke="#FCA8D5" stroke-width="0.097" data-glyph-w="40.484" data-glyph-h="58" data-glyph-ascender="49.822" data-glyph-descender="-8.178" id="svg_25"/>
     <path d="m210.7251,184.90201l0,0q5.8,0 10.21,1.97l0,0q5.16,2.38 7.25,7.95l0,0q1.62,4.35 1.62,10.21l0,0q0,5.91 -1.97,10.26l0,0q-2.5,5.17 -7.66,7.25l0,0q-3.83,1.51 -8.81,1.51l0,0q-6.56,0 -11.37,-2.43l0,0q-4.06,-2.03 -6.21,-6.38q-2.14,-4.35 -2.14,-10.56l0,0q0,-11.08 5.51,-15.78l0,0q4.64,-3.94 13.57,-4zm0.06,6.5l0,0q-5.69,0 -8.12,3.71l0,0q-1.98,2.9 -1.98,9.34l0,0q0,6.78 2.44,9.97l0,0q2.44,3.14 7.71,3.14l0,0q5.11,0 7.52,-3.19q2.4,-3.19 2.4,-9.86l0,0q0,-6.09 -1.97,-9.28l0,0q-2.26,-3.77 -8,-3.83z" transform="skewX(-14)" fill="#FCA8D5" stroke="#FCA8D5" stroke-width="0.097" data-glyph-w="41.876" data-glyph-h="58" data-glyph-ascender="49.822" data-glyph-descender="-8.178" id="svg_24"/>
     <path d="m252.6011,184.90201l0,0q5.8,0 10.21,1.97l0,0q5.16,2.38 7.25,7.95l0,0q1.62,4.35 1.62,10.21l0,0q0,5.91 -1.97,10.26l0,0q-2.5,5.17 -7.66,7.25l0,0q-3.83,1.51 -8.81,1.51l0,0q-6.56,0 -11.37,-2.43l0,0q-4.06,-2.03 -6.21,-6.38q-2.14,-4.35 -2.14,-10.56l0,0q0,-11.08 5.51,-15.78l0,0q4.64,-3.94 13.57,-4zm0.06,6.5l0,0q-5.69,0 -8.12,3.71l0,0q-1.98,2.9 -1.98,9.34l0,0q0,6.78 2.44,9.97l0,0q2.44,3.14 7.71,3.14l0,0q5.11,0 7.52,-3.19q2.4,-3.19 2.4,-9.86l0,0q0,-6.09 -1.97,-9.28l0,0q-2.26,-3.77 -8,-3.83z" transform="skewX(-14)" fill="#FCA8D5" stroke="#FCA8D5" stroke-width="0.097" data-glyph-w="41.876" data-glyph-h="58" data-glyph-ascender="49.822" data-glyph-descender="-8.178" id="svg_23"/>
     <path d="m277.47709,185.13201l8.24,0l0,38.69l-8.24,0l0,-38.69zm22.57,38.69l-14.04,-19.55l14.79,-19.14l10.85,0l-16.19,19.14l15.43,19.55l-10.84,0z" transform="skewX(-14)" fill="#FCA8D5" stroke="#FCA8D5" stroke-width="0.097" data-glyph-w="38.222" data-glyph-h="58" data-glyph-ascender="49.822" data-glyph-descender="-8.178" id="svg_22"/>
    </g>
   </svg>
  </g>
 </g>
</svg>